<svg width="252" height="190" viewBox="0 0 252 190" fill="none" xmlns="http://www.w3.org/2000/svg">
<rect width="251.222" height="189.156" rx="8.86667" fill="white"/>
<rect x="90.1444" y="161.078" width="23.6444" height="8.86667" rx="4.43333" fill="#B4B6C4"/>
<rect x="137.433" y="161.078" width="23.6444" height="8.86667" rx="4.43333" fill="#B4B6C4"/>
<rect x="184.722" y="161.078" width="23.6444" height="8.86667" rx="4.43333" fill="#B4B6C4"/>
<rect x="42.8556" y="161.078" width="23.6444" height="8.86667" rx="4.43333" fill="#B4B6C4"/>
<rect x="42.8555" y="93.0996" width="23.6444" height="53.2" fill="#1A1947"/>
<rect x="137.433" y="87.189" width="23.6444" height="59.1111" fill="#1A1947"/>
<rect x="184.722" y="57.6333" width="23.6444" height="88.6667" fill="#EDEEFD"/>
<rect x="90.1444" y="67.9775" width="23.6444" height="78.3222" fill="#EDEEFD"/>
<path d="M197.49 64.2336C196.942 64.6903 196.146 64.6903 195.598 64.2336L185.082 55.4703C182.959 53.7006 184.21 50.2442 186.974 50.2442L206.114 50.2442C208.879 50.2442 210.13 53.7006 208.006 55.4703L197.49 64.2336Z" fill="#E9105D"/>
<rect x="144.822" y="8.8667" width="103.444" height="50.2444" rx="5.91111" fill="#E9105D"/>
<rect opacity="0.4" x="156.644" y="44.333" width="41.3778" height="4.43333" rx="2.21667" fill="white"/>
<path d="M164.258 22.3339C163.872 23.7132 163.196 25.3407 162.23 27.2165C161.265 29.0785 160.389 30.4716 159.603 31.3957H164.361V27.2786C164.83 26.3545 165.203 25.4097 165.479 24.4442H166.389V31.3957H168.189V33.237H166.389V36.7334H164.361V33.237H157.679V31.375C159.555 28.5613 161.024 25.5476 162.086 22.3339H164.258ZM175.849 22.3339C176.718 22.3339 177.511 22.5408 178.228 22.9546C178.959 23.3684 179.538 23.9408 179.966 24.6718C180.393 25.4028 180.607 26.2234 180.607 27.1338V32.1612C180.607 33.0577 180.4 33.8714 179.986 34.6024C179.573 35.3197 179 35.8921 178.269 36.3196C177.552 36.7334 176.745 36.9403 175.849 36.9403H175.58C174.669 36.9403 173.849 36.7334 173.118 36.3196C172.4 35.8921 171.842 35.3128 171.442 34.5818C171.042 33.8507 170.842 33.0439 170.842 32.1612V27.1338C170.842 26.2097 171.049 25.3821 171.463 24.6511C171.89 23.9201 172.462 23.3546 173.18 22.9546C173.897 22.5408 174.697 22.3339 175.58 22.3339H175.849ZM175.724 24.1752C174.924 24.1752 174.249 24.4442 173.697 24.9821C173.145 25.5062 172.869 26.1683 172.869 26.9682V32.306C172.869 33.1059 173.145 33.7749 173.697 34.3128C174.249 34.8369 174.924 35.099 175.724 35.099C176.552 35.099 177.235 34.83 177.773 34.2921C178.311 33.7542 178.58 33.0922 178.58 32.306V26.9682C178.58 26.1821 178.311 25.52 177.773 24.9821C177.235 24.4442 176.552 24.1752 175.724 24.1752ZM194.37 22.5408L185.763 36.7334H184.315L192.963 22.5408H194.37ZM185.37 22.5615C186.101 22.5615 186.701 22.8029 187.17 23.2856C187.639 23.7546 187.874 24.3476 187.874 25.0649V27.2786C187.874 27.9958 187.632 28.5958 187.15 29.0785C186.681 29.5475 186.088 29.7819 185.37 29.7819H185.225C184.508 29.7819 183.908 29.5475 183.426 29.0785C182.957 28.5958 182.722 27.9958 182.722 27.2786V25.0649C182.722 24.3476 182.957 23.7546 183.426 23.2856C183.895 22.8029 184.494 22.5615 185.225 22.5615H185.37ZM185.308 23.6994C184.922 23.6994 184.612 23.8166 184.377 24.0511C184.157 24.2718 184.046 24.5614 184.046 24.92V27.4234C184.046 27.782 184.157 28.0785 184.377 28.313C184.612 28.5337 184.922 28.644 185.308 28.644C185.694 28.644 185.998 28.5337 186.219 28.313C186.439 28.0785 186.55 27.782 186.55 27.4234V24.92C186.55 24.5614 186.439 24.2718 186.219 24.0511C185.998 23.8166 185.694 23.6994 185.308 23.6994ZM193.439 29.5337C194.156 29.5337 194.749 29.775 195.218 30.2578C195.701 30.7267 195.942 31.3198 195.942 32.037V34.2507C195.942 34.9679 195.708 35.5679 195.239 36.0507C194.77 36.5196 194.17 36.7541 193.439 36.7541H193.294C192.563 36.7541 191.963 36.5196 191.494 36.0507C191.025 35.5679 190.791 34.9679 190.791 34.2507V32.037C190.791 31.3198 191.025 30.7267 191.494 30.2578C191.977 29.775 192.577 29.5337 193.294 29.5337H193.439ZM193.377 30.6716C192.991 30.6716 192.68 30.7888 192.446 31.0233C192.225 31.2439 192.115 31.5336 192.115 31.8922V34.3956C192.115 34.7542 192.225 35.0507 192.446 35.2852C192.68 35.5059 192.991 35.6162 193.377 35.6162C193.763 35.6162 194.067 35.5059 194.287 35.2852C194.508 35.0507 194.618 34.7542 194.618 34.3956V31.8922C194.618 31.5336 194.508 31.2439 194.287 31.0233C194.067 30.7888 193.763 30.6716 193.377 30.6716Z" fill="white"/>
<circle cx="226.1" cy="32.5109" r="10.3444" fill="white"/>
<path d="M226.859 29.9143C226.468 29.4973 225.732 29.4973 225.341 29.9143L221.47 34.0487C220.954 34.5995 221.408 35.4203 222.229 35.4203L229.972 35.4203C230.792 35.4203 231.246 34.5995 230.73 34.0487L226.859 29.9143Z" fill="#38E7B2"/>
</svg>
