<svg width="403" height="206" viewBox="0 0 403 206" fill="none" xmlns="http://www.w3.org/2000/svg">
<rect width="403" height="206" rx="20" fill="white"/>
<path d="M182.545 158.581C175.225 138.486 158.869 151.177 151 160.055V181H367V113.209C364.246 111.999 358.195 112.5 356.307 121.216C349.891 146.304 337.059 145.236 332.771 130.266C329.23 100.001 333.951 72.1568 322.148 69.7356C307.984 66.1037 311.525 49.1551 310.344 35.8384C306.803 16.4686 289.098 20.1004 289.098 39.4702C289.098 58.84 289.098 78.2099 279.656 83.0523C259.59 92.7372 272.185 138.116 262.743 144.169C241.497 155.064 249.417 113.209 237.614 113.209C228.171 113.209 225.361 104.843 225.361 100.001C221.82 60.0507 202.934 96.3691 202.934 132.687C202.934 169.006 191.099 182.068 182.545 158.581Z" fill="url(#paint0_linear_10_7)"/>
<rect x="28" y="35" width="85" height="36" rx="18" fill="#A535FD"/>
<path d="M52.96 57H51.364L46.562 49.706V57H44.966V47.13H46.562L51.364 54.452V47.13H52.96V57ZM62.0598 52.772C62.0598 53.0333 62.0411 53.262 62.0038 53.458H56.0678C56.0958 54.2513 56.3151 54.8393 56.7258 55.222C57.1364 55.6047 57.6451 55.796 58.2518 55.796C58.7838 55.796 59.2318 55.6607 59.5958 55.39C59.9691 55.1193 60.1978 54.76 60.2818 54.312H61.9898C61.8871 54.8533 61.6724 55.334 61.3458 55.754C61.0191 56.174 60.5944 56.5053 60.0718 56.748C59.5491 56.9813 58.9658 57.098 58.3218 57.098C57.5751 57.098 56.9124 56.9393 56.3338 56.622C55.7644 56.3047 55.3164 55.8473 54.9898 55.25C54.6631 54.6527 54.4998 53.948 54.4998 53.136C54.4998 52.3333 54.6631 51.6333 54.9898 51.036C55.3164 50.4387 55.7644 49.9813 56.3338 49.664C56.9124 49.3467 57.5751 49.188 58.3218 49.188C59.0778 49.188 59.7358 49.3467 60.2958 49.664C60.8651 49.972 61.2991 50.4013 61.5978 50.952C61.9058 51.4933 62.0598 52.1 62.0598 52.772ZM60.4498 52.73C60.4684 52.226 60.3798 51.806 60.1838 51.47C59.9971 51.1247 59.7358 50.8727 59.3998 50.714C59.0731 50.546 58.7138 50.462 58.3218 50.462C57.6964 50.462 57.1738 50.6533 56.7538 51.036C56.3338 51.4187 56.1051 51.9833 56.0678 52.73H60.4498ZM74.4088 49.286L72.2668 57H70.5028L68.5988 51.036L66.6668 57H64.9168L62.7748 49.286H64.3848L65.8548 55.53L67.7868 49.286H69.4668L71.4268 55.53L72.8968 49.286H74.4088ZM84.6705 54.858H80.4985L79.7425 57H78.0345L81.6745 47.27H83.5085L87.1345 57H85.4265L84.6705 54.858ZM84.2225 53.626L82.5845 49.006L80.9465 53.626H84.2225ZM91.4135 49.188C92.1135 49.188 92.7108 49.3607 93.2055 49.706C93.7002 50.0513 94.0455 50.5087 94.2415 51.078V46.64H95.8515V57H94.2415V55.208C94.0455 55.7773 93.7002 56.2347 93.2055 56.58C92.7108 56.9253 92.1135 57.098 91.4135 57.098C90.7415 57.098 90.1395 56.9393 89.6075 56.622C89.0848 56.3047 88.6742 55.8473 88.3755 55.25C88.0768 54.6527 87.9275 53.948 87.9275 53.136C87.9275 52.3333 88.0768 51.6333 88.3755 51.036C88.6742 50.4387 89.0848 49.9813 89.6075 49.664C90.1395 49.3467 90.7415 49.188 91.4135 49.188ZM91.9035 50.588C91.1942 50.588 90.6248 50.8167 90.1955 51.274C89.7755 51.722 89.5655 52.3427 89.5655 53.136C89.5655 53.9293 89.7755 54.5547 90.1955 55.012C90.6248 55.46 91.1942 55.684 91.9035 55.684C92.3515 55.684 92.7528 55.5813 93.1075 55.376C93.4622 55.1613 93.7422 54.8627 93.9475 54.48C94.1528 54.0973 94.2555 53.6493 94.2555 53.136C94.2555 52.632 94.1528 52.1887 93.9475 51.806C93.7422 51.414 93.4622 51.1153 93.1075 50.91C92.7528 50.6953 92.3515 50.588 91.9035 50.588Z" fill="#F8F9FE"/>
<path d="M29.74 109.361H33.07C33.28 107.831 34.39 106.391 36.79 106.391C39.13 106.391 40.36 107.651 40.36 109.541C40.36 111.881 38.47 112.781 35.38 112.811H34.57V115.631H35.35C38.92 115.631 40.78 116.621 40.78 119.501C40.78 121.541 39.52 123.101 36.97 123.101C34.39 123.101 32.89 121.541 32.74 119.501H29.44C29.65 123.791 32.86 125.951 37 125.951C41.56 125.951 44.02 123.311 44.02 119.831C44.02 116.801 42.55 114.911 40.27 114.221V114.101C41.98 113.531 43.63 111.761 43.63 109.151C43.63 105.971 41.26 103.451 36.91 103.451C32.92 103.451 29.98 105.581 29.74 109.361ZM45.9625 130.001H48.1825L51.8125 121.721H48.0925L45.9625 130.001ZM53.7508 104.051V106.961H64.8508L56.4208 125.831H59.8708L68.2108 106.601V104.051H53.7508ZM70.8679 125.531H85.4479V122.681H75.9379C79.4479 119.471 84.8479 115.421 84.8479 110.111C84.8479 106.181 82.3279 103.511 77.8879 103.511C74.0179 103.511 70.9579 105.821 70.8379 110.561H74.1379C74.2279 108.101 75.5179 106.421 77.9179 106.421C80.4679 106.421 81.4579 107.981 81.4579 110.261C81.4579 114.551 76.0279 118.511 70.8679 123.041V125.531ZM89.5623 119.891C89.8323 123.011 91.9323 125.801 96.4623 125.801C102.192 125.801 103.752 121.871 103.752 114.491C103.752 107.321 101.862 103.451 96.2223 103.451C91.6323 103.451 88.9623 106.331 88.9623 110.681C88.9623 115.301 92.0823 117.671 95.9223 117.671C97.9023 117.671 99.7923 116.921 100.782 115.541C100.782 121.121 99.4023 122.951 96.6723 122.951C94.3923 122.951 93.1023 121.841 92.7123 119.891H89.5623ZM96.5223 114.791C93.4923 114.791 92.2323 112.841 92.2323 110.591C92.2323 108.071 93.7623 106.301 96.3123 106.301C98.8023 106.301 100.392 107.891 100.392 110.681C100.392 113.141 98.9523 114.791 96.5223 114.791Z" fill="#161C28"/>
<path d="M28.72 148.524V150.27H35.38L30.322 161.592H32.392L37.396 150.054V148.524H28.72ZM39.1523 154.86C39.1523 158.676 40.1603 161.556 43.8323 161.556C47.5043 161.556 48.5123 158.676 48.5123 154.86C48.5123 151.116 47.5043 148.236 43.8323 148.236C40.1603 148.236 39.1523 151.116 39.1523 154.86ZM46.4963 154.86C46.4963 157.434 46.2263 159.684 43.8323 159.684C41.4383 159.684 41.1683 157.434 41.1683 154.86C41.1683 152.412 41.4383 150.108 43.8323 150.108C46.2263 150.108 46.4963 152.412 46.4963 154.86ZM53.0775 160.404C53.0775 159.666 52.5015 159.09 51.7815 159.09C51.0435 159.09 50.4675 159.666 50.4675 160.404C50.4675 161.142 51.0435 161.718 51.7815 161.718C52.5015 161.718 53.0775 161.142 53.0775 160.404ZM55.0253 154.86C55.0253 158.676 56.0333 161.556 59.7053 161.556C63.3773 161.556 64.3853 158.676 64.3853 154.86C64.3853 151.116 63.3773 148.236 59.7053 148.236C56.0333 148.236 55.0253 151.116 55.0253 154.86ZM62.3693 154.86C62.3693 157.434 62.0993 159.684 59.7053 159.684C57.3113 159.684 57.0413 157.434 57.0413 154.86C57.0413 152.412 57.3113 150.108 59.7053 150.108C62.0993 150.108 62.3693 152.412 62.3693 154.86ZM66.2326 151.638C66.2326 153.438 67.4026 154.464 68.9686 154.464C70.5346 154.464 71.7046 153.438 71.7046 151.638C71.7046 149.856 70.5346 148.83 68.9686 148.83C67.4026 148.83 66.2326 149.856 66.2326 151.638ZM68.9686 150.072C69.6526 150.072 70.1026 150.522 70.1026 151.638C70.1026 152.754 69.6526 153.222 68.9686 153.222C68.2666 153.222 67.8346 152.754 67.8346 151.638C67.8346 150.522 68.2666 150.072 68.9686 150.072ZM68.0146 161.592H70.0306L77.2126 149.064H75.1966L68.0146 161.592ZM73.5586 159C73.5586 160.8 74.7286 161.826 76.2946 161.826C77.8426 161.826 79.0126 160.8 79.0126 159C79.0126 157.2 77.8426 156.192 76.2946 156.192C74.7286 156.192 73.5586 157.2 73.5586 159ZM76.2766 157.434C76.9606 157.434 77.4106 157.884 77.4106 159C77.4106 160.116 76.9606 160.566 76.2766 160.566C75.5926 160.566 75.1426 160.116 75.1426 159C75.1426 157.884 75.5926 157.434 76.2766 157.434Z" fill="#B7BECB"/>
<path d="M152 159.254C159.832 150.536 177.142 138.092 183.721 158.065C191.945 183.032 203.694 166.388 203.694 130.721C203.694 95.0534 222.492 59.3862 226.016 98.6201C226.016 103.376 228.366 112.887 237.765 112.887C249.514 112.887 242.464 154.499 263.612 143.798C273.011 137.854 260.087 91.4867 280.06 81.9754C289.459 77.2198 289.459 58.1973 289.459 39.1749C289.459 20.1524 307.082 16.5857 310.607 35.6082C311.781 48.6861 308.257 65.3308 322.355 68.8975C334.104 71.2753 329.404 98.62 332.929 128.343C336.454 146.176 350.552 144.987 356.426 120.02C358.306 111.46 364.259 111.698 367 112.887" stroke="#A535FD" stroke-width="3" stroke-linecap="round"/>
<defs>
<linearGradient id="paint0_linear_10_7" x1="259.121" y1="8.23828" x2="259.121" y2="181.238" gradientUnits="userSpaceOnUse">
<stop stop-color="#A535FD"/>
<stop offset="0.855678" stop-color="#DEEFFB" stop-opacity="0.160463"/>
<stop offset="1" stop-color="#F8F9FE" stop-opacity="0"/>
</linearGradient>
</defs>
</svg>
