<svg width="554" height="709" viewBox="0 0 554 709" fill="none" xmlns="http://www.w3.org/2000/svg">
<g id="Group 1000005557">
<rect id="Rectangle 134" x="2" y="2" width="549.737" height="705" rx="274.869" fill="url(#paint0_linear_43_2)" stroke="url(#paint1_linear_43_2)" stroke-width="3" stroke-linecap="round" stroke-dasharray="7.22 7.22"/>
<rect id="Rectangle 135" x="155.457" y="199.689" width="242.823" height="310.525" rx="121.412" fill="white" stroke="url(#paint2_linear_43_2)" stroke-width="2.5" stroke-linecap="round" stroke-dasharray="7.22 7.22"/>
<g id="Group 1000005418">
<path id="Vector 2573" d="M472 362V450.788C472 488.094 451.234 522.298 418.135 539.51L322 589.5" stroke="white" stroke-width="2" stroke-dasharray="12 12"/>
<circle id="Ellipse 168" cx="471.5" cy="362.5" r="14.5" fill="white"/>
<circle id="Ellipse 169" cx="324.5" cy="585.5" r="14.5" fill="white"/>
</g>
<g id="Group 1000005421">
<g id="Ellipse 175" filter="url(#filter0_d_43_2)">
<circle cx="207" cy="91" r="36" fill="white"/>
</g>
<g id="Group">
<g id="Group_2">
<path id="Vector" d="M201.642 89.8185C198.594 89.8185 196.133 92.2802 196.178 95.2974C196.208 97.2338 197.273 98.915 198.842 99.8532C198.309 99.0351 197.994 98.0669 197.979 97.0236C197.934 94.0065 200.396 91.5447 203.443 91.5447C204.043 91.5447 204.621 91.6423 205.162 91.8149V85.7731C204.599 85.6905 204.021 85.6455 203.443 85.6455C203.413 85.6455 203.39 85.6455 203.36 85.6455V90.0887C202.82 89.9161 202.242 89.8185 201.642 89.8185Z" fill="#F00044"/>
<path id="Vector_2" d="M214.813 71.7002H214.768H213.207C213.658 73.9593 214.926 75.9257 216.697 77.2617C215.534 75.7231 214.828 73.8017 214.813 71.7002Z" fill="#F00044"/>
<path id="Vector_3" d="M224 80.8946C223.407 80.8946 222.837 80.8346 222.274 80.7295V85.0601C220.232 85.0601 218.251 84.6623 216.39 83.8667C215.189 83.3564 214.07 82.7034 213.042 81.9153L213.072 95.2674C213.057 98.2695 211.871 101.084 209.725 103.208C207.976 104.934 205.762 106.038 203.36 106.39C202.797 106.473 202.219 106.518 201.642 106.518C199.075 106.518 196.628 105.685 194.639 104.146C194.864 104.416 195.104 104.679 195.367 104.934C197.529 107.066 200.396 108.244 203.45 108.244C204.028 108.244 204.606 108.199 205.169 108.117C207.571 107.764 209.785 106.661 211.534 104.934C213.68 102.81 214.866 99.9957 214.881 96.9936L214.768 83.6416C215.789 84.4296 216.907 85.0901 218.116 85.593C219.985 86.381 221.966 86.7863 224 86.7863" fill="#F00044"/>
</g>
<path id="Vector_4" d="M195.345 88.9701C197.484 86.846 200.328 85.6677 203.36 85.6452V84.0465C202.797 83.964 202.219 83.9189 201.642 83.9189C198.579 83.9189 195.705 85.0973 193.543 87.2438C191.419 89.3528 190.203 92.2349 190.211 95.2295C190.211 98.2467 191.404 101.076 193.558 103.215C193.903 103.553 194.256 103.868 194.632 104.153C192.935 102.134 192.012 99.6126 192.005 96.9558C192.012 93.9611 193.22 91.0791 195.345 88.9701Z" fill="#08FFF9"/>
<path id="Vector_5" d="M222.274 80.7292V79.123H222.259C220.172 79.123 218.251 78.4326 216.705 77.2617C218.048 79.033 220.015 80.2939 222.274 80.7292Z" fill="#08FFF9"/>
<path id="Vector_6" d="M203.135 102.337C203.848 102.374 204.531 102.277 205.161 102.074C207.338 101.361 208.907 99.3346 208.907 96.9479L208.914 88.0165V71.6999H213.207C213.095 71.137 213.035 70.5666 213.027 69.9736H207.113V86.2828L207.105 95.2142C207.105 97.6009 205.537 99.6273 203.36 100.34C202.73 100.55 202.047 100.648 201.334 100.603C200.426 100.55 199.578 100.28 198.842 99.845C199.765 101.271 201.341 102.239 203.135 102.337Z" fill="#08FFF9"/>
<path id="Vector_7" d="M203.36 106.39C205.762 106.037 207.976 104.934 209.725 103.208C211.871 101.084 213.057 98.2692 213.072 95.267L213.042 81.915C214.063 82.703 215.181 83.3635 216.39 83.8664C218.258 84.6544 220.24 85.0597 222.274 85.0597V80.7291C220.015 80.2938 218.048 79.0329 216.705 77.2617C214.933 75.9257 213.658 73.9593 213.215 71.7002H208.914V88.0093L208.907 96.9407C208.907 99.3274 207.338 101.354 205.162 102.067C204.531 102.277 203.848 102.375 203.135 102.33C201.334 102.232 199.765 101.264 198.842 99.8453C197.273 98.9146 196.208 97.2259 196.178 95.2895C196.133 92.2724 198.594 89.8106 201.641 89.8106C202.242 89.8106 202.82 89.9082 203.36 90.0808V85.6376C200.328 85.6602 197.484 86.8385 195.344 88.9625C193.22 91.0715 192.005 93.9536 192.012 96.9407C192.012 99.5976 192.935 102.119 194.639 104.138C196.635 105.677 199.075 106.51 201.641 106.51C202.219 106.518 202.797 106.473 203.36 106.39Z" fill="black"/>
</g>
</g>
<g id="Group 1000005420">
<g id="Ellipse 174" filter="url(#filter1_d_43_2)">
<circle cx="333" cy="91" r="36" fill="white"/>
</g>
<g id="Group_3">
<path id="Vector_8" d="M345.788 77.3346C345.762 77.1428 345.594 77.0368 345.456 77.0252C345.317 77.0136 342.614 76.9725 342.614 76.9725C342.614 76.9725 340.353 74.7767 340.129 74.5532C339.906 74.3297 339.47 74.3975 339.3 74.4473C339.298 74.4481 338.876 74.5787 338.164 74.7991C338.045 74.4132 337.87 73.9393 337.62 73.4631C336.815 71.9273 335.637 71.1144 334.212 71.1123C334.21 71.1123 334.209 71.1123 334.207 71.1123C334.109 71.1123 334.01 71.1216 333.912 71.1305C333.87 71.0801 333.827 71.0301 333.783 70.9824C333.163 70.3186 332.366 69.9952 331.413 70.0232C329.573 70.0759 327.741 71.4046 326.255 73.7644C325.21 75.4252 324.415 77.5116 324.189 79.1263C322.077 79.7805 320.599 80.2383 320.567 80.2483C319.5 80.5829 319.467 80.6164 319.327 81.621C319.221 82.3815 316.432 103.957 316.432 103.957L339.815 108L349.949 105.481C349.949 105.481 345.814 77.5263 345.788 77.3346ZM325.499 78.7206C326.131 75.7642 328.609 71.3289 331.448 71.2472C331.88 71.2382 332.244 71.333 332.555 71.5375C332.058 71.7955 331.577 72.1664 331.126 72.6501C329.958 73.9038 329.062 75.8505 328.705 77.7277C327.591 78.0727 326.502 78.4102 325.499 78.7206ZM333.955 76.1023C332.73 76.4815 331.393 76.8957 330.051 77.3111C330.429 75.8662 331.144 74.4277 332.022 73.4853C332.349 73.1347 332.806 72.7435 333.348 72.5202C333.857 73.5814 333.967 75.0859 333.955 76.1023ZM335.178 75.7235C335.164 74.7918 335.053 73.4958 334.619 72.3755C336.015 72.6401 336.703 74.2197 336.993 75.1616C336.455 75.3282 335.842 75.5179 335.178 75.7235Z" fill="#95BF47"/>
<path id="Vector_9" d="M345.456 77.0256C345.317 77.0141 342.614 76.973 342.614 76.973C342.614 76.973 340.353 74.7771 340.129 74.5536C340.046 74.4702 339.933 74.4276 339.815 74.4092L339.816 108L349.949 105.482C349.949 105.482 345.814 77.5268 345.788 77.335C345.762 77.1433 345.594 77.0372 345.456 77.0256Z" fill="#5E8E3E"/>
<path id="Vector_10" d="M334.199 82.236L333.021 86.6393C333.021 86.6393 331.709 86.0414 330.152 86.1397C327.87 86.2838 327.845 87.7235 327.868 88.0843C327.992 90.0537 333.173 90.484 333.464 95.0965C333.693 98.7254 331.54 101.208 328.436 101.404C324.711 101.639 322.661 99.4411 322.661 99.4411L323.45 96.0835C323.45 96.0835 325.514 97.6406 327.166 97.5363C328.245 97.4681 328.63 96.5905 328.591 95.9697C328.429 93.4008 324.21 93.5522 323.944 89.3312C323.72 85.7788 326.052 82.1799 331.2 81.8548C333.183 81.7297 334.199 82.236 334.199 82.236Z" fill="white"/>
</g>
</g>
<g id="Group 1000005422">
<g id="Ellipse 172" filter="url(#filter2_d_43_2)">
<circle cx="476" cy="272" r="36" fill="white"/>
</g>
<g id="Group_4">
<path id="Vector_11" d="M476 295C488.703 295 499 284.703 499 272C499 259.297 488.703 249 476 249C463.297 249 453 259.297 453 272C453 284.703 463.297 295 476 295Z" fill="url(#paint3_linear_43_2)"/>
<g id="Group_5">
<path id="Vector_12" d="M480.886 259.223H471.124C466.769 259.223 463.232 262.76 463.232 267.114V276.876C463.232 281.231 466.769 284.768 471.124 284.768H480.886C485.241 284.768 488.778 281.231 488.778 276.876V267.114C488.778 262.76 485.241 259.223 480.886 259.223ZM485.926 276.887C485.926 279.667 483.667 281.936 480.876 281.936H471.114C468.333 281.936 466.064 279.677 466.064 276.887V267.124C466.064 264.344 468.323 262.075 471.114 262.075H480.876C483.656 262.075 485.926 264.334 485.926 267.124V276.887Z" fill="white"/>
<path id="Vector_13" d="M476 265.469C472.402 265.469 469.468 268.403 469.468 272.001C469.468 275.599 472.402 278.533 476 278.533C479.598 278.533 482.532 275.599 482.532 272.001C482.532 268.403 479.598 265.469 476 265.469ZM476 275.967C473.812 275.967 472.034 274.188 472.034 272.001C472.034 269.813 473.812 268.035 476 268.035C478.188 268.035 479.966 269.813 479.966 272.001C479.966 274.188 478.188 275.967 476 275.967Z" fill="white"/>
<path id="Vector_14" d="M483.029 266.184C483.631 266.087 484.04 265.52 483.942 264.918C483.845 264.316 483.278 263.907 482.676 264.005C482.074 264.103 481.666 264.669 481.763 265.271C481.861 265.873 482.428 266.282 483.029 266.184Z" fill="white"/>
</g>
</g>
</g>
<g id="Group 1000005423">
<g id="Ellipse 173" filter="url(#filter3_d_43_2)">
<circle cx="427" cy="167" r="36" fill="white"/>
</g>
<g id="Group_6">
<path id="Vector_15" d="M448 167.5C448 177.732 440.503 186.213 430.703 187.751V173.426H435.48L436.389 167.5H430.703V163.655C430.703 162.033 431.498 160.453 434.044 160.453H436.629V155.408C436.629 155.408 434.283 155.008 432.04 155.008C427.357 155.008 424.297 157.846 424.297 162.984V167.5H419.092V173.426H424.297V187.751C414.497 186.213 407 177.732 407 167.5C407 156.179 416.179 147 427.5 147C438.821 147 448 156.179 448 167.5Z" fill="#1877F2"/>
<path id="Vector_16" d="M435.48 173.426L436.389 167.5H430.703V163.655C430.703 162.033 431.497 160.453 434.044 160.453H436.629V155.408C436.629 155.408 434.283 155.008 432.04 155.008C427.357 155.008 424.297 157.846 424.297 162.984V167.5H419.092V173.426H424.297V187.751C425.341 187.915 426.41 188 427.5 188C428.59 188 429.659 187.915 430.703 187.751V173.426H435.48Z" fill="white"/>
</g>
</g>
</g>
<defs>
<filter id="filter0_d_43_2" x="141" y="40" width="132" height="132" filterUnits="userSpaceOnUse" color-interpolation-filters="sRGB">
<feFlood flood-opacity="0" result="BackgroundImageFix"/>
<feColorMatrix in="SourceAlpha" type="matrix" values="0 0 0 0 0 0 0 0 0 0 0 0 0 0 0 0 0 0 127 0" result="hardAlpha"/>
<feOffset dy="15"/>
<feGaussianBlur stdDeviation="15"/>
<feComposite in2="hardAlpha" operator="out"/>
<feColorMatrix type="matrix" values="0 0 0 0 0.647059 0 0 0 0 0.207843 0 0 0 0 0.992157 0 0 0 0.34 0"/>
<feBlend mode="normal" in2="BackgroundImageFix" result="effect1_dropShadow_43_2"/>
<feBlend mode="normal" in="SourceGraphic" in2="effect1_dropShadow_43_2" result="shape"/>
</filter>
<filter id="filter1_d_43_2" x="267" y="40" width="132" height="132" filterUnits="userSpaceOnUse" color-interpolation-filters="sRGB">
<feFlood flood-opacity="0" result="BackgroundImageFix"/>
<feColorMatrix in="SourceAlpha" type="matrix" values="0 0 0 0 0 0 0 0 0 0 0 0 0 0 0 0 0 0 127 0" result="hardAlpha"/>
<feOffset dy="15"/>
<feGaussianBlur stdDeviation="15"/>
<feComposite in2="hardAlpha" operator="out"/>
<feColorMatrix type="matrix" values="0 0 0 0 0.647059 0 0 0 0 0.207843 0 0 0 0 0.992157 0 0 0 0.34 0"/>
<feBlend mode="normal" in2="BackgroundImageFix" result="effect1_dropShadow_43_2"/>
<feBlend mode="normal" in="SourceGraphic" in2="effect1_dropShadow_43_2" result="shape"/>
</filter>
<filter id="filter2_d_43_2" x="410" y="221" width="132" height="132" filterUnits="userSpaceOnUse" color-interpolation-filters="sRGB">
<feFlood flood-opacity="0" result="BackgroundImageFix"/>
<feColorMatrix in="SourceAlpha" type="matrix" values="0 0 0 0 0 0 0 0 0 0 0 0 0 0 0 0 0 0 127 0" result="hardAlpha"/>
<feOffset dy="15"/>
<feGaussianBlur stdDeviation="15"/>
<feComposite in2="hardAlpha" operator="out"/>
<feColorMatrix type="matrix" values="0 0 0 0 0.647059 0 0 0 0 0.207843 0 0 0 0 0.992157 0 0 0 0.34 0"/>
<feBlend mode="normal" in2="BackgroundImageFix" result="effect1_dropShadow_43_2"/>
<feBlend mode="normal" in="SourceGraphic" in2="effect1_dropShadow_43_2" result="shape"/>
</filter>
<filter id="filter3_d_43_2" x="361" y="116" width="132" height="132" filterUnits="userSpaceOnUse" color-interpolation-filters="sRGB">
<feFlood flood-opacity="0" result="BackgroundImageFix"/>
<feColorMatrix in="SourceAlpha" type="matrix" values="0 0 0 0 0 0 0 0 0 0 0 0 0 0 0 0 0 0 127 0" result="hardAlpha"/>
<feOffset dy="15"/>
<feGaussianBlur stdDeviation="15"/>
<feComposite in2="hardAlpha" operator="out"/>
<feColorMatrix type="matrix" values="0 0 0 0 0.647059 0 0 0 0 0.207843 0 0 0 0 0.992157 0 0 0 0.34 0"/>
<feBlend mode="normal" in2="BackgroundImageFix" result="effect1_dropShadow_43_2"/>
<feBlend mode="normal" in="SourceGraphic" in2="effect1_dropShadow_43_2" result="shape"/>
</filter>
<linearGradient id="paint0_linear_43_2" x1="780.5" y1="-218" x2="111.5" y2="568" gradientUnits="userSpaceOnUse">
<stop stop-color="#A535FD"/>
<stop offset="1" stop-color="#A535FD" stop-opacity="0"/>
</linearGradient>
<linearGradient id="paint1_linear_43_2" x1="534.586" y1="199.238" x2="180.281" y2="386.545" gradientUnits="userSpaceOnUse">
<stop stop-color="#A535FD"/>
<stop offset="1" stop-color="#EFF0FF" stop-opacity="0"/>
</linearGradient>
<linearGradient id="paint2_linear_43_2" x1="370.297" y1="239.859" x2="205.105" y2="430.778" gradientUnits="userSpaceOnUse">
<stop stop-color="#A535FD"/>
<stop offset="1" stop-color="white"/>
</linearGradient>
<linearGradient id="paint3_linear_43_2" x1="458.487" y1="289.513" x2="491.173" y2="256.827" gradientUnits="userSpaceOnUse">
<stop stop-color="#FEE411"/>
<stop offset="0.0518459" stop-color="#FEDB16"/>
<stop offset="0.1381" stop-color="#FEC125"/>
<stop offset="0.2481" stop-color="#FE983D"/>
<stop offset="0.3762" stop-color="#FE5F5E"/>
<stop offset="0.5" stop-color="#FE2181"/>
<stop offset="1" stop-color="#9000DC"/>
</linearGradient>
</defs>
</svg>
